<?xml version="1.0" standalone="no"?>
<!DOCTYPE svg PUBLIC "-//W3C//DTD SVG 20010904//EN"
 "http://www.w3.org/TR/2001/REC-SVG-20010904/DTD/svg10.dtd">
<svg version="1.0" xmlns="http://www.w3.org/2000/svg"
 width="618.000000pt" height="618.000000pt" viewBox="0 0 618.000000 618.000000"
 preserveAspectRatio="xMidYMid meet">
<metadata>
Created by potrace 1.14, written by Peter Selinger 2001-2017
</metadata>
<g transform="translate(0.000000,618.000000) scale(0.100000,-0.100000)"
fill="#000000" stroke="none">
<path d="M3754 5795 c-35 -15 -50 -39 -60 -91 -9 -52 -11 -65 -30 -164 -9 -47
-18 -96 -21 -109 -2 -14 -18 -93 -34 -175 -24 -124 -37 -193 -42 -236 0 -3 3
-16 7 -31 9 -33 -28 -250 -48 -282 -9 -13 -23 -47 -32 -77 -18 -61 -98 -149
-136 -151 -13 0 -30 -2 -38 -4 -8 -2 -161 -33 -340 -70 -179 -37 -335 -73
-348 -81 -47 -31 -51 -98 -7 -133 20 -15 171 -49 515 -116 126 -24 233 -49
268 -62 41 -15 101 -71 103 -96 0 -7 2 -19 4 -27 1 -8 6 -33 9 -55 4 -22 29
-173 56 -335 27 -162 52 -312 56 -334 3 -21 7 -48 10 -60 2 -11 16 -94 31
-184 23 -139 30 -167 51 -188 32 -32 84 -32 116 -1 16 16 26 44 35 102 7 44
15 88 16 97 4 18 94 556 100 598 5 33 44 259 49 285 2 11 6 41 10 67 12 83 76
132 206 158 65 12 74 14 165 33 39 9 88 18 110 21 22 4 47 8 55 11 8 2 26 6
40 9 14 2 45 9 70 15 25 5 60 12 78 16 107 18 158 36 180 60 42 49 16 116 -52
134 -44 12 -369 78 -426 87 -19 3 -38 8 -41 10 -3 2 -21 6 -40 9 -199 33 -290
67 -320 120 -15 24 -80 379 -135 730 -5 32 -14 88 -20 120 -2 11 -7 40 -10 65
-3 25 -8 48 -10 52 -2 3 -7 28 -10 55 -3 26 -7 55 -9 63 -3 8 -7 33 -11 55
-11 78 -61 115 -120 90z"/>
<path d="M1858 4464 c-36 -19 -40 -36 -112 -424 -3 -14 -21 -108 -41 -210 -19
-102 -40 -210 -45 -240 -6 -30 -13 -66 -16 -80 -4 -14 -8 -46 -9 -72 -3 -51
-5 -64 -36 -233 -40 -218 -61 -311 -84 -364 -27 -65 -101 -152 -147 -174 -29
-14 -171 -44 -857 -183 -95 -20 -182 -41 -192 -47 -24 -15 -40 -56 -34 -87 10
-51 33 -60 256 -106 118 -24 230 -46 249 -49 19 -3 42 -8 50 -10 14 -4 277
-59 330 -68 229 -42 317 -85 365 -177 13 -24 47 -198 70 -350 2 -14 11 -68 20
-120 9 -52 20 -120 25 -150 4 -30 11 -66 14 -80 3 -14 8 -43 10 -65 3 -22 8
-51 10 -65 3 -14 34 -200 70 -415 62 -368 67 -391 91 -412 51 -45 124 -19 139
47 3 14 8 39 11 55 15 90 77 464 81 485 11 68 45 269 50 300 7 45 10 62 23
135 6 33 13 78 16 100 8 50 10 65 25 143 6 35 13 75 15 90 11 75 15 99 20 122
3 14 10 54 15 89 6 35 17 75 24 90 40 77 138 137 251 155 17 2 50 9 75 15 25
5 59 12 75 15 17 3 75 15 130 26 55 11 114 23 130 26 17 3 46 9 65 14 19 5 49
11 65 13 17 3 41 8 55 11 14 3 36 8 50 10 14 2 90 18 170 35 123 26 148 34
168 56 26 31 27 44 8 90 -14 34 -41 47 -126 61 -14 3 -59 12 -100 20 -942 192
-859 173 -921 213 -56 35 -94 83 -108 136 -8 31 -82 460 -96 560 -2 11 -29
171 -60 355 -31 184 -58 349 -61 365 -2 17 -13 82 -24 145 -11 63 -21 124 -23
135 -10 66 -72 99 -129 69z"/>
<path d="M4695 3010 c-37 -14 -54 -51 -69 -150 -3 -19 -8 -46 -11 -60 -3 -14
-14 -74 -25 -135 -11 -60 -25 -130 -30 -155 -12 -55 -17 -89 -25 -156 -3 -28
-8 -61 -10 -75 -3 -13 -10 -49 -15 -81 -34 -184 -70 -229 -205 -252 -45 -8
-88 -16 -105 -21 -8 -3 -32 -7 -54 -11 -21 -3 -46 -7 -55 -9 -9 -2 -76 -16
-149 -31 -74 -15 -143 -34 -154 -43 -11 -9 -22 -34 -25 -57 -5 -36 -2 -43 27
-67 17 -15 39 -27 48 -28 9 0 24 -2 32 -4 53 -12 164 -35 189 -40 108 -19 365
-76 381 -85 41 -22 51 -60 101 -357 27 -164 52 -311 55 -328 3 -16 7 -41 9
-55 10 -75 39 -228 46 -247 17 -46 92 -61 131 -27 24 22 34 58 58 209 11 72
25 155 30 185 5 30 12 71 15 90 6 41 23 134 30 170 3 13 7 42 10 65 7 45 33
199 40 232 10 46 73 79 185 98 19 3 53 10 75 15 22 5 56 12 75 15 166 29 357
77 374 95 45 44 10 131 -57 144 -59 11 -82 16 -132 26 -27 6 -59 12 -70 14
-11 3 -54 11 -95 20 -41 8 -86 17 -100 20 -235 42 -251 54 -275 216 -2 19 -7
49 -10 65 -8 45 -17 97 -21 120 -1 11 -26 157 -53 323 -28 167 -54 309 -58
315 -21 35 -71 52 -108 37z"/>
</g>
</svg>
