<?xml version="1.0" standalone="no"?>
<!DOCTYPE svg PUBLIC "-//W3C//DTD SVG 20010904//EN"
 "http://www.w3.org/TR/2001/REC-SVG-20010904/DTD/svg10.dtd">
<svg version="1.0" xmlns="http://www.w3.org/2000/svg"
 width="160.000000pt" height="160.000000pt" viewBox="0 0 160.000000 160.000000"
 preserveAspectRatio="xMidYMid meet">
<metadata>
Created by potrace 1.14, written by Peter Selinger 2001-2017
</metadata>
<g transform="translate(0.000000,160.000000) scale(0.100000,-0.100000)"
fill="#000000" stroke="none">
<path d="M279 1489 c0 -8 -2 -21 -4 -30 -1 -8 -6 -42 -9 -75 -8 -70 -24 -123
-42 -142 -14 -14 -79 -43 -91 -41 -5 1 -21 1 -38 0 -27 -1 -23 -4 28 -25 101
-42 118 -67 143 -212 18 -108 33 -149 35 -99 2 62 16 146 30 193 15 47 48 78
115 109 l59 27 -60 11 c-33 6 -70 17 -82 25 -21 14 -45 56 -50 90 -13 87 -16
110 -18 138 -3 34 -14 57 -16 31z"/>
<path d="M986 1463 c-2 -10 -8 -45 -11 -78 -10 -92 -15 -128 -20 -155 -3 -14
-7 -43 -10 -65 -5 -41 -6 -50 -26 -143 -13 -66 -49 -109 -114 -137 -69 -31
-132 -40 -303 -46 -70 -2 -74 -13 -5 -16 130 -5 298 -75 361 -149 39 -48 57
-90 72 -179 6 -33 13 -71 16 -85 2 -14 6 -41 9 -60 3 -19 13 -82 24 -140 20
-118 19 -120 51 80 46 280 50 298 84 348 57 86 216 160 384 179 62 7 60 15 -6
19 -219 14 -301 31 -363 76 -28 21 -58 66 -65 101 -15 71 -33 180 -39 231 -4
32 -8 68 -10 80 -10 62 -17 123 -17 139 0 9 -1 17 -3 17 -2 0 -6 -8 -9 -17z"/>
<path d="M509 659 c0 -8 -2 -27 -4 -44 -21 -166 -28 -183 -79 -205 -23 -11
-59 -20 -79 -22 -46 -3 -48 -14 -4 -22 46 -9 114 -55 127 -85 10 -26 16 -48
26 -111 4 -19 8 -42 9 -50 2 -8 4 -28 5 -45 1 -42 16 -13 23 45 12 90 27 151
44 175 20 27 82 60 131 70 38 8 34 24 -6 23 -45 -1 -107 20 -129 44 -21 23
-38 86 -49 183 -5 49 -13 72 -15 44z"/>
</g>
</svg>
