<?xml version="1.0" standalone="no"?>
<!DOCTYPE svg PUBLIC "-//W3C//DTD SVG 20010904//EN"
 "http://www.w3.org/TR/2001/REC-SVG-20010904/DTD/svg10.dtd">
<svg version="1.0" xmlns="http://www.w3.org/2000/svg"
 width="700.000000pt" height="700.000000pt" viewBox="0 0 700.000000 700.000000"
 preserveAspectRatio="xMidYMid meet">
<metadata>
Created by potrace 1.14, written by Peter Selinger 2001-2017
</metadata>
<g transform="translate(0.000000,700.000000) scale(0.100000,-0.100000)"
fill="#000000" stroke="none">
<path d="M4227 6550 c-24 -19 -36 -53 -53 -150 -2 -14 -9 -47 -14 -75 -6 -27
-12 -59 -14 -70 -14 -79 -13 -73 -67 -350 -32 -164 -39 -217 -31 -241 9 -29 7
-53 -12 -164 -21 -118 -27 -142 -41 -163 -8 -13 -22 -46 -30 -73 -28 -96 -95
-174 -160 -187 -16 -3 -109 -22 -205 -42 -96 -21 -186 -39 -200 -41 -54 -10
-70 -13 -215 -43 -185 -39 -211 -47 -230 -74 -17 -25 -20 -80 -5 -107 11 -20
39 -39 68 -45 9 -2 49 -10 87 -19 39 -8 82 -17 95 -19 132 -25 640 -131 660
-139 42 -16 91 -59 105 -92 11 -27 34 -142 51 -256 3 -19 16 -98 29 -175 13
-77 26 -153 29 -170 2 -16 30 -187 63 -379 54 -324 60 -351 85 -378 57 -61
152 -23 165 66 4 30 28 173 38 226 2 14 25 149 50 300 25 151 47 287 50 303
23 131 33 192 40 242 4 22 8 47 10 55 2 8 7 35 10 60 11 82 24 115 57 147 51
48 84 60 238 89 36 7 272 55 290 59 13 3 177 36 240 49 187 36 218 52 227 118
5 42 -31 92 -74 103 -23 5 -725 149 -793 162 -45 8 -104 40 -131 69 -33 37
-44 70 -59 169 -7 44 -14 87 -15 96 -4 22 -15 88 -20 119 -2 14 -31 187 -64
385 -33 198 -63 378 -67 400 -3 22 -7 45 -8 50 -2 6 -6 33 -10 60 -12 79 -25
112 -51 129 -33 22 -87 20 -118 -4z"/>
<path d="M2093 5048 c-11 -13 -23 -28 -27 -35 -7 -12 -60 -273 -71 -348 -4
-22 -8 -48 -11 -57 -3 -10 -7 -30 -10 -45 -7 -40 -71 -376 -100 -522 -13 -69
-24 -143 -24 -165 0 -38 -20 -155 -84 -481 -37 -186 -94 -294 -193 -359 -33
-22 -140 -53 -253 -72 -25 -4 -58 -11 -95 -18 -11 -3 -200 -41 -420 -85 -220
-45 -414 -87 -430 -95 -17 -7 -36 -25 -44 -39 -17 -33 -7 -90 21 -117 20 -18
51 -27 198 -55 14 -3 104 -21 200 -41 96 -20 184 -37 195 -39 11 -2 52 -10 90
-19 39 -8 82 -17 95 -19 14 -3 93 -19 175 -35 83 -17 166 -34 185 -37 69 -11
178 -73 219 -125 42 -53 55 -97 76 -247 6 -45 20 -128 30 -173 3 -14 7 -43 11
-65 3 -22 21 -132 40 -245 19 -113 37 -220 40 -239 3 -18 7 -41 9 -51 3 -16
51 -301 61 -362 2 -16 7 -43 10 -60 3 -18 7 -42 9 -53 1 -11 6 -36 9 -55 4
-19 9 -46 11 -60 7 -51 25 -166 30 -190 3 -14 8 -38 10 -55 14 -75 80 -113
142 -80 38 21 48 40 58 106 3 24 8 51 10 59 2 8 6 33 10 55 3 22 17 108 31
190 14 83 27 164 30 180 2 17 6 41 9 55 3 14 7 39 9 55 3 17 19 111 36 210 35
208 32 191 60 360 12 72 24 141 26 155 2 14 7 43 10 65 21 142 65 368 77 396
35 79 141 152 255 174 32 6 430 86 455 91 52 11 124 26 147 30 40 8 359 73
438 90 93 20 124 45 126 101 1 73 -39 98 -214 128 -19 3 -75 15 -125 25 -49
11 -103 22 -120 25 -16 2 -39 7 -50 9 -36 8 -469 97 -495 102 -210 38 -287 65
-355 126 -63 55 -81 109 -115 343 -6 39 -12 77 -15 85 -2 8 -7 35 -10 60 -3
25 -8 52 -10 60 -3 8 -7 31 -9 50 -3 20 -7 47 -10 60 -4 14 -8 39 -10 55 -2
17 -9 62 -16 100 -6 39 -14 84 -17 100 -2 17 -6 41 -9 55 -2 14 -13 79 -24
145 -11 66 -22 129 -24 140 -2 11 -7 40 -11 65 -4 25 -9 52 -10 60 -2 8 -15
87 -29 175 -14 88 -28 169 -30 180 -2 11 -9 54 -16 95 -20 119 -43 150 -113
150 -22 0 -40 -8 -54 -22z"/>
<path d="M5313 3405 c-35 -15 -47 -33 -57 -85 -3 -19 -8 -46 -11 -60 -50 -249
-99 -511 -105 -570 -7 -62 -13 -101 -25 -160 -1 -3 -5 -25 -9 -50 -17 -99 -47
-179 -79 -213 -31 -34 -76 -49 -206 -72 -19 -3 -37 -7 -40 -9 -3 -2 -24 -7
-46 -10 -67 -11 -85 -14 -235 -46 -80 -17 -153 -32 -164 -33 -10 -1 -32 -14
-47 -28 -45 -42 -39 -106 12 -146 13 -11 103 -32 284 -67 109 -22 377 -78 405
-86 20 -5 50 -23 67 -40 29 -29 33 -38 48 -145 4 -22 13 -76 20 -120 8 -44 17
-93 19 -110 3 -16 27 -165 55 -330 27 -165 52 -313 54 -330 11 -70 61 -120
112 -110 11 2 23 4 27 4 16 2 58 53 59 71 1 11 2 23 3 28 2 8 16 86 21 122 6
36 64 380 70 410 2 14 14 84 25 155 54 340 56 347 109 378 22 13 166 47 341
81 180 34 341 68 368 77 54 18 80 98 47 145 -23 33 -27 35 -400 110 -11 2 -31
6 -45 9 -32 7 -67 14 -103 20 -172 32 -238 59 -256 104 -9 25 -15 51 -25 116
-3 17 -8 46 -11 65 -7 41 -71 421 -79 465 -2 17 -12 75 -21 130 -9 55 -18 111
-21 125 -2 14 -9 54 -15 90 -14 81 -22 96 -59 115 -35 18 -46 18 -87 0z"/>
</g>
</svg>
